# xmcd
#
# Track frame offsets:
#	150
#	11937
#	25587
#	36300
#	48675
#	59512
#	71812
#	86237
#	99212
#	112050
#	124875
#	136625
#	149362
#	159800
#	172312
#	183000
#	196825
#
# Disc length: 2776 seconds
#
# Revision: 1
# Processed by: cddbd v1.4PL0 Copyright (c) Steve Scherf et al.
# Submitted via: audiograbber 1.82.01
#
DISCID=f10ad611
DTITLE=Various Artist - Legendary Hits Vol. 2
DYEAR=1900
DGENRE=
TTITLE0=George Jones - White Lightning
TTITLE1=Pee Wee King - Slow Poke
TTITLE2=Hank Locklin - Please Help Me, I'm Falling
TTITLE3=Hank Williams Sr. - Lovesick Blues
TTITLE4=Faron Young - Hello Walls
TTITLE5=Hank Thompson - The Wild Side of Life
TTITLE6=Marty Robbins - Don't Worry
TTITLE7=Eddy Arnold - I Really Don't Want to Know
TTITLE8=Jim Reeves - Four Walls
TTITLE9=Patsy Cline - I Fall to Pieces
TTITLE10=Tennessee Ernie Ford - Shot Gun Boogie
TTITLE11=Hank Snow - I'm Moving On
TTITLE12=Ferlin Husky - Wings of a Dove
TTITLE13=Porter Wagoner - A Satisfied Mind
TTITLE14=Leroy Van Dyke - Walk on By
TTITLE15=Johnny Cash - Don't Take Your Guns to Town
TTITLE16=Eddy Arnold - I'll Hold You in my Heart
EXTD=
EXTT0=
EXTT1=
EXTT2=
EXTT3=
EXTT4=
EXTT5=
EXTT6=
EXTT7=
EXTT8=
EXTT9=
EXTT10=
EXTT11=
EXTT12=
EXTT13=
EXTT14=
EXTT15=
EXTT16=
PLAYORDER=
